<svg width="500" height="500" viewBox="0 0 500 500" fill="none" xmlns="http://www.w3.org/2000/svg">
<path d="M0 250C0 111.929 111.929 0 250 0C388.071 0 500 111.929 500 250V476.19C500 489.34 489.34 500 476.19 500H250C111.929 500 0 388.071 0 250Z" fill="black"/>
<path d="M143.323 237.056H151.099L151.867 244.64H152.251C154.619 242.208 157.179 240.16 159.931 238.496C162.683 236.768 165.883 235.904 169.531 235.904C175.035 235.904 179.067 237.536 181.627 240.8C184.187 244.064 185.467 248.768 185.467 254.912V284H175.963V256.16C175.963 252.064 175.227 249.056 173.755 247.136C172.283 245.152 169.755 244.16 166.171 244.16C163.675 244.16 161.435 244.8 159.451 246.08C157.467 247.296 155.259 249.152 152.827 251.648V284H143.323V237.056ZM241.398 284H233.622L232.854 276.224H232.47C230.166 278.912 227.638 281.088 224.886 282.752C222.198 284.352 219.062 285.152 215.478 285.152C209.91 285.152 205.846 283.552 203.286 280.352C200.726 277.088 199.446 272.352 199.446 266.144V237.056H208.95V264.896C208.95 269.056 209.686 272.128 211.158 274.112C212.63 276.032 215.158 276.992 218.742 276.992C221.174 276.992 223.382 276.416 225.366 275.264C227.414 274.048 229.59 272.032 231.894 269.216V237.056H241.398V284ZM257.296 215.936H282.16V268.16C282.16 271.424 282.96 273.792 284.56 275.264C286.224 276.672 288.368 277.376 290.992 277.376C292.272 277.376 293.584 277.216 294.928 276.896C296.272 276.576 297.776 276.064 299.44 275.36L301.744 282.464C300.656 282.848 299.6 283.2 298.576 283.52C297.616 283.84 296.624 284.096 295.6 284.288C294.576 284.544 293.488 284.736 292.336 284.864C291.248 285.056 290.032 285.152 288.688 285.152C283.44 285.152 279.44 283.648 276.688 280.64C274 277.632 272.656 273.28 272.656 267.584V223.52H257.296V215.936ZM314.859 215.936H339.723V268.16C339.723 271.424 340.523 273.792 342.123 275.264C343.787 276.672 345.931 277.376 348.555 277.376C349.835 277.376 351.147 277.216 352.491 276.896C353.835 276.576 355.339 276.064 357.003 275.36L359.307 282.464C358.219 282.848 357.163 283.2 356.139 283.52C355.179 283.84 354.187 284.096 353.163 284.288C352.139 284.544 351.051 284.736 349.899 284.864C348.811 285.056 347.595 285.152 346.251 285.152C341.003 285.152 337.003 283.648 334.251 280.64C331.563 277.632 330.219 273.28 330.219 267.584V223.52H314.859V215.936Z" fill="white"/>
</svg>
