<svg width="438" height="657" viewBox="0 0 438 657" fill="none" xmlns="http://www.w3.org/2000/svg">
<rect width="438" height="657" fill="white"/>
<path d="M112.323 316.056H120.099L120.867 323.64H121.251C123.619 321.208 126.179 319.16 128.931 317.496C131.683 315.768 134.883 314.904 138.531 314.904C144.035 314.904 148.067 316.536 150.627 319.8C153.187 323.064 154.467 327.768 154.467 333.912V363H144.963V335.16C144.963 331.064 144.227 328.056 142.755 326.136C141.283 324.152 138.755 323.16 135.171 323.16C132.675 323.16 130.435 323.8 128.451 325.08C126.467 326.296 124.259 328.152 121.827 330.648V363H112.323V316.056ZM210.398 363H202.622L201.854 355.224H201.47C199.166 357.912 196.638 360.088 193.886 361.752C191.198 363.352 188.062 364.152 184.478 364.152C178.91 364.152 174.846 362.552 172.286 359.352C169.726 356.088 168.446 351.352 168.446 345.144V316.056H177.95V343.896C177.95 348.056 178.686 351.128 180.158 353.112C181.63 355.032 184.158 355.992 187.742 355.992C190.174 355.992 192.382 355.416 194.366 354.264C196.414 353.048 198.59 351.032 200.894 348.216V316.056H210.398V363ZM226.296 294.936H251.16V347.16C251.16 350.424 251.96 352.792 253.56 354.264C255.224 355.672 257.368 356.376 259.992 356.376C261.272 356.376 262.584 356.216 263.928 355.896C265.272 355.576 266.776 355.064 268.44 354.36L270.744 361.464C269.656 361.848 268.6 362.2 267.576 362.52C266.616 362.84 265.624 363.096 264.6 363.288C263.576 363.544 262.488 363.736 261.336 363.864C260.248 364.056 259.032 364.152 257.688 364.152C252.44 364.152 248.44 362.648 245.688 359.64C243 356.632 241.656 352.28 241.656 346.584V302.52H226.296V294.936ZM283.859 294.936H308.723V347.16C308.723 350.424 309.523 352.792 311.123 354.264C312.787 355.672 314.931 356.376 317.555 356.376C318.835 356.376 320.147 356.216 321.491 355.896C322.835 355.576 324.339 355.064 326.003 354.36L328.307 361.464C327.219 361.848 326.163 362.2 325.139 362.52C324.179 362.84 323.187 363.096 322.163 363.288C321.139 363.544 320.051 363.736 318.899 363.864C317.811 364.056 316.595 364.152 315.251 364.152C310.003 364.152 306.003 362.648 303.251 359.64C300.563 356.632 299.219 352.28 299.219 346.584V302.52H283.859V294.936Z" fill="black"/>
</svg>
